<svg width="20" height="20" viewBox="0 0 20 20" fill="none" xmlns="http://www.w3.org/2000/svg">
<g clip-path="url(#clip0)">
<path d="M19.7634 0.236753C19.4479 -0.0787549 18.9364 -0.0787549 18.6209 0.236753L0.236631 18.6209C-0.078877 18.9364 -0.078877 19.448 0.236631 19.7635C0.394365 19.9213 0.601162 20.0001 0.80792 20.0001C1.01468 20.0001 1.22144 19.9212 1.37921 19.7634L19.7634 1.37925C20.0789 1.06378 20.0789 0.552261 19.7634 0.236753Z" fill="#2F3370"/>
<path d="M19.7634 18.6209L1.37913 0.236753C1.06366 -0.0787549 0.5521 -0.0787549 0.236631 0.236753C-0.078877 0.552222 -0.078877 1.06375 0.236631 1.37925L18.6209 19.7635C18.7786 19.9212 18.9854 20.0001 19.1921 20.0001C19.3989 20.0001 19.6057 19.9212 19.7634 19.7635C20.0788 19.448 20.0788 18.9364 19.7634 18.6209Z" fill="#2F3370"/>
</g>
<defs>
<clipPath id="clip0">
<rect width="20" height="20" fill="white" transform="matrix(-1 0 0 1 20 0)"/>
</clipPath>
</defs>
</svg>
