<svg width="336" height="46" viewBox="0 0 336 46" fill="none" xmlns="http://www.w3.org/2000/svg">
<path fill-rule="evenodd" clip-rule="evenodd" d="M22.3906 46C10.5987 45.6175 0.982658 36.4732 0 24.9645L22.3906 46ZM31.796 44.4006C30.7081 44.8526 29.5499 45.2003 28.3918 45.4437L0.21057 19.4361C0.386044 18.254 0.666804 17.1413 1.01775 16.0287L31.796 44.4006ZM39.201 39.672C37.9727 40.8194 36.6391 41.8277 35.2002 42.6969L1.4038 14.9161C1.82494 13.8382 2.31627 12.8299 2.84269 11.8216L39.201 39.672ZM43.3422 34.4913C42.5 35.9169 41.5173 37.2729 40.3943 38.4898L5.15896 8.48375C5.86085 7.61451 6.63294 6.81481 7.47522 6.04989L43.3422 34.4913ZM23.1627 0C35.9723 0 46.4306 10.3265 46.4306 23.0174C46.4306 24.8254 46.22 26.5986 45.7989 28.3023L10.8794 3.54649L45.0619 30.771C44.7811 31.5707 44.4302 32.3008 44.0792 33.0658L8.73864 4.97203C10.2828 3.7551 11.9674 2.74679 13.7572 1.94709L31.4451 12.6213L17.4422 0.695389C19.2671 0.243386 21.1973 0 23.1627 0Z" fill="#2F3370"/>
<path d="M325.5 31.4V41.2H320.9V17.2H325.5L325.4 19.8H325.6C325.9 18.7 326.3 18 327 17.6C327.7 17.2 328.6 17 329.7 17C331.5 17 332.8 17.5 333.7 18.5C334.6 19.5 335.1 21 335.1 23.2V27C335.1 28.7 334.9 30.1 334.6 31.1C334.2 32.1 333.7 32.9 332.9 33.4C332.1 33.9 331.1 34.1 329.8 34.1C328.8 34.1 328 33.9 327.4 33.5C326.7 33.1 326.3 32.4 325.9 31.3H325.5V31.4ZM325.5 25.6C325.5 26.7 325.5 27.5 325.6 28.1C325.7 28.7 325.9 29.2 326.2 29.5C326.5 29.8 327 30 327.7 30C328.4 30 328.9 29.9 329.3 29.7C329.7 29.5 329.9 29.1 330.1 28.5C330.3 27.9 330.3 26.9 330.3 25.7C330.3 24.5 330.2 23.5 330.1 22.9C330 22.3 329.7 21.9 329.4 21.7C329 21.5 328.5 21.3 327.8 21.3C327.1 21.3 326.6 21.4 326.3 21.7C326 21.9 325.8 22.4 325.6 23C325.6 23.4 325.5 24.3 325.5 25.6ZM314 28.3H318.5C318.5 30.6 317.9 32.2 316.6 33.1C316 33.5 315.3 33.7 314.5 33.9C313.7 34 312.7 34.1 311.6 34.1C309.8 34.1 308.3 33.8 307.3 33.3C306.3 32.7 305.6 31.9 305.2 30.6C304.8 29.4 304.6 27.7 304.6 25.5C304.6 23.3 304.8 21.5 305.2 20.3C305.6 19.1 306.2 18.2 307.2 17.7C308.2 17.2 309.6 16.9 311.5 16.9C313.3 16.9 314.7 17.1 315.7 17.6C316.7 18.1 317.4 18.9 317.8 20.2C318.2 21.4 318.4 23.2 318.4 25.5V26.4H309.2C309.2 27.2 309.2 27.8 309.3 28.3C309.4 28.8 309.5 29.2 309.6 29.4C309.8 29.7 310 29.9 310.3 30C310.6 30.1 311 30.2 311.5 30.2C312.3 30.2 312.9 30.1 313.3 29.8C313.8 29.7 314 29.1 314 28.3ZM309.4 23.5H314C314 22.3 313.8 21.6 313.5 21.3C313.2 21 312.5 20.8 311.7 20.8C311.1 20.8 310.7 20.9 310.4 21C310.1 21.1 309.9 21.4 309.7 21.8C309.5 22.1 309.4 22.7 309.4 23.5ZM293.4 27.3V33.9H288.8V17.2H293.4V23.3H297.7V17.2H302.3V33.9H297.7V27.3H293.4ZM279.3 21.2C278.5 21.2 278 21.3 277.6 21.5C277.3 21.7 277 22.1 276.9 22.7C276.8 23.3 276.7 24.2 276.7 25.5C276.7 26.8 276.8 27.7 276.9 28.3C277 28.9 277.2 29.3 277.6 29.5C277.9 29.7 278.5 29.8 279.3 29.8C279.9 29.8 280.3 29.7 280.6 29.6C280.9 29.5 281.1 29.3 281.3 29C281.5 28.7 281.6 28.3 281.6 27.8C281.6 27.3 281.7 26.5 281.7 25.5C281.7 24.2 281.7 23.3 281.6 22.7C281.5 22.1 281.3 21.7 281 21.5C280.6 21.3 280.1 21.2 279.3 21.2ZM279.2 17C280.7 17 282 17.1 282.9 17.4C283.8 17.6 284.5 18.1 285 18.7C285.5 19.3 285.8 20.2 286 21.2C286.2 22.3 286.3 23.7 286.3 25.6C286.3 27.4 286.2 28.9 286 29.9C285.8 31 285.5 31.8 284.9 32.4C284.4 33 283.7 33.5 282.8 33.7C281.9 34 280.7 34.1 279.2 34.1C277.7 34.1 276.5 34 275.6 33.7C274.7 33.4 274 33 273.5 32.3C273 31.7 272.6 30.8 272.4 29.7C272.2 28.6 272.1 27.2 272.1 25.5C272.1 23.7 272.2 22.2 272.4 21.2C272.6 20.1 272.9 19.3 273.4 18.7C273.9 18.1 274.6 17.6 275.5 17.4C276.5 17.1 277.7 17 279.2 17ZM269.8 17.2H264.5L260.7 27.5H260.5V17.2H256.3V33.9H261.6L265.4 23.6H265.5V33.9H269.7V17.2H269.8ZM244.1 29.9H248.4V17.2H253V29.9H254.3V38.2H250.1V33.9H239.3V17.2H243.9V29.9H244.1ZM236.4 17.2H231.1L227.3 27.5H227.1V17.2H223V33.9H228.3L232.1 23.6H232.2V33.9H236.4V17.2ZM215.5 20.1L215.3 17.1H219.9V33.1C219.9 35.3 219.7 36.9 219.4 38.1C219 39.3 218.4 40.1 217.5 40.6C216.6 41.1 215.2 41.3 213.3 41.3C212 41.3 210.9 41.2 210.1 41C209.3 40.8 208.6 40.5 208.1 40.1C207.6 39.7 207.2 39.1 206.9 38.3C206.6 37.5 206.5 36.6 206.4 35.4H210.8C210.8 36.2 211 36.8 211.4 37.1C211.7 37.3 212.2 37.3 212.8 37.3C213.5 37.3 214 37.2 214.4 37.1C214.7 37 215 36.7 215.1 36.3C215.2 35.9 215.3 35.3 215.3 34.5V31H215.1C214.6 32.8 213.3 33.7 211.3 33.7C210.1 33.7 209.1 33.5 208.4 33.1C207.7 32.7 207.1 32.1 206.8 31.4C206.4 30.7 206.2 29.8 206.1 28.9C206 27.9 205.9 26.8 205.9 25.4C205.9 23.4 206 21.8 206.3 20.6C206.5 19.4 207.1 18.5 207.9 17.8C208.7 17.2 209.9 16.8 211.4 16.8C212.5 16.8 213.4 17 214 17.5C214.7 17.9 215.1 18.8 215.4 20H215.5V20.1ZM215.3 25.6C215.3 24.3 215.2 23.4 215.1 22.8C215 22.2 214.7 21.8 214.4 21.6C214.1 21.4 213.6 21.3 212.9 21.3C212.1 21.3 211.6 21.4 211.3 21.6C211 21.8 210.8 22.2 210.7 22.8C210.6 23.4 210.6 24.3 210.6 25.7C210.6 26.9 210.7 27.8 210.8 28.4C210.9 29 211.1 29.4 211.5 29.6C211.8 29.8 212.3 29.9 213 29.9C213.7 29.9 214.3 29.8 214.6 29.5C214.9 29.2 215.2 28.8 215.3 28.2C215.3 27.5 215.3 26.6 215.3 25.6ZM194.4 27.3V33.9H189.8V17.2H194.4V23.3H198.7V17.2H203.3V33.9H198.7V27.3H194.4ZM180.3 21.2C179.5 21.2 179 21.3 178.6 21.5C178.3 21.7 178 22.1 177.9 22.7C177.8 23.3 177.7 24.2 177.7 25.5C177.7 26.8 177.8 27.7 177.9 28.3C178 28.9 178.2 29.3 178.6 29.5C178.9 29.7 179.5 29.8 180.3 29.8C180.9 29.8 181.3 29.7 181.6 29.6C181.9 29.5 182.1 29.3 182.3 29C182.5 28.7 182.6 28.3 182.6 27.8C182.6 27.3 182.7 26.5 182.7 25.5C182.7 24.2 182.7 23.3 182.6 22.7C182.5 22.1 182.3 21.7 182 21.5C181.6 21.3 181.1 21.2 180.3 21.2ZM180.2 17C181.7 17 183 17.1 183.9 17.4C184.8 17.6 185.5 18.1 186 18.7C186.5 19.3 186.8 20.2 187 21.2C187.2 22.3 187.3 23.7 187.3 25.6C187.3 27.4 187.2 28.9 187 29.9C186.8 31 186.5 31.8 185.9 32.4C185.4 33 184.7 33.5 183.8 33.7C182.9 34 181.7 34.1 180.2 34.1C178.7 34.1 177.5 34 176.6 33.7C175.7 33.4 175 33 174.5 32.3C174 31.7 173.6 30.8 173.4 29.7C173.2 28.6 173.1 27.2 173.1 25.5C173.1 23.7 173.2 22.2 173.4 21.2C173.6 20.1 173.9 19.3 174.4 18.7C174.9 18.1 175.6 17.6 176.5 17.4C177.5 17.1 178.7 17 180.2 17ZM162.4 10V23.5H163.2L166 17.2H171.1L167.1 25.2L172 33.9H166.6L163.2 27.1H162.4V33.9H157.8V10H162.4ZM145.8 31.4V41.2H141.2V17.2H145.8L145.7 19.8H145.9C146.2 18.7 146.6 18 147.3 17.6C147.9 17.2 148.8 17 149.9 17C151.7 17 153 17.5 153.9 18.5C154.8 19.5 155.3 21 155.3 23.2V27C155.3 28.7 155.1 30.1 154.8 31.1C154.4 32.1 153.9 32.9 153.1 33.4C152.3 33.9 151.3 34.1 150 34.1C149 34.1 148.2 33.9 147.6 33.5C146.9 33.1 146.5 32.4 146.1 31.3H145.8V31.4ZM145.8 25.6C145.8 26.7 145.8 27.5 145.9 28.1C146 28.7 146.2 29.2 146.5 29.5C146.8 29.8 147.3 30 148 30C148.7 30 149.2 29.9 149.6 29.7C150 29.5 150.2 29.1 150.4 28.5C150.6 27.9 150.6 26.9 150.6 25.7C150.6 24.5 150.5 23.5 150.4 22.9C150.3 22.3 150 21.9 149.7 21.7C149.3 21.5 148.8 21.3 148.1 21.3C147.4 21.3 146.9 21.4 146.6 21.7C146.3 21.9 146.1 22.4 145.9 23C145.8 23.4 145.8 24.3 145.8 25.6ZM134.3 28.3H138.9C138.9 30.6 138.3 32.2 137 33.1C136.4 33.5 135.7 33.7 134.9 33.9C134.1 34 133.1 34.1 132 34.1C130.2 34.1 128.7 33.8 127.7 33.3C126.7 32.7 126 31.9 125.6 30.6C125.2 29.4 125 27.7 125 25.5C125 23.3 125.2 21.5 125.6 20.3C126 19.1 126.6 18.2 127.6 17.7C128.6 17.2 130 17 131.9 17C133.7 17 135.1 17.2 136.1 17.7C137.1 18.2 137.8 19 138.2 20.3C138.6 21.5 138.8 23.3 138.8 25.6V26.5H129.6C129.6 27.3 129.6 27.9 129.7 28.4C129.8 28.9 129.9 29.3 130 29.5C130.2 29.8 130.4 30 130.7 30.1C131 30.2 131.4 30.3 131.9 30.3C132.7 30.3 133.3 30.2 133.7 29.9C134.1 29.7 134.3 29.1 134.3 28.3ZM129.6 23.5H134.2C134.2 22.3 134 21.6 133.7 21.3C133.4 21 132.7 20.8 131.9 20.8C131.3 20.8 130.9 20.9 130.6 21C130.3 21.1 130.1 21.4 129.9 21.8C129.7 22.1 129.7 22.7 129.6 23.5ZM105.4 24.4V33.9H100.8V17.2H105.3V19.6H105.5C105.8 18.7 106.2 18 106.9 17.6C107.6 17.2 108.4 17 109.3 17C110.1 17 110.8 17.1 111.3 17.2C111.9 17.4 112.4 17.7 112.8 18.2C113.2 18.7 113.5 19.4 113.5 20.3H113.7C113.8 19.2 114.2 18.4 115 17.8C115.9 17.3 116.7 17 117.7 17C119.4 17 120.6 17.4 121.4 18.3C122.2 19.2 122.6 20.6 122.6 22.5V33.9H118V24.2C118 23.4 117.9 22.8 117.9 22.4C117.8 22 117.7 21.7 117.4 21.5C117.1 21.3 116.7 21.1 116.2 21.1C115.4 21.1 114.8 21.4 114.5 21.9C114.2 22.5 114 23.3 114 24.3V33.8H109.4V23.8C109.4 22.9 109.3 22.2 109.1 21.8C108.9 21.4 108.4 21.2 107.7 21.2C106.8 21.2 106.2 21.5 105.9 22C105.5 22.5 105.4 23.3 105.4 24.4ZM88.7 27.3V33.9H84V17.2H88.6V23.3H93V17.2H97.6V33.9H93V27.3H88.7ZM62 10H67.1V25.7H67.3L73.6 10H80.7V33.9H75.6V18.2H75.4L69.3 33.9H62V10Z" fill="#2F3370"/>
</svg>
