<svg width="40" height="40" viewBox="0 0 40 40" fill="none" xmlns="http://www.w3.org/2000/svg">
<path fill-rule="evenodd" clip-rule="evenodd" d="M19.2895 39.7125C9.13076 39.383 0.846561 31.5052 0 21.5904L19.2895 39.7125ZM27.3923 38.3347C26.455 38.7241 25.4573 39.0236 24.4596 39.2333L0.181406 16.8277C0.332577 15.8093 0.574452 14.8508 0.876795 13.8923L27.3923 38.3347ZM33.7717 34.2609C32.7135 35.2494 31.5646 36.1181 30.325 36.8669L1.20937 12.9337C1.57218 12.0052 1.99546 11.1365 2.44898 10.2678L33.7717 34.2609ZM37.3394 29.7978C36.6138 31.0259 35.7672 32.1941 34.7997 33.2425L4.44444 7.39225C5.04913 6.6434 5.71429 5.95446 6.43991 5.29548L37.3394 29.7978ZM19.9546 0.0834961C30.9902 0.0834961 40 8.97981 40 19.913C40 21.4706 39.8186 22.9982 39.4558 24.466L9.37264 3.1388L38.8209 26.5927C38.579 27.2817 38.2766 27.9107 37.9743 28.5697L7.52834 4.36691C8.85865 3.31852 10.3099 2.44986 11.8519 1.76092L27.0899 10.9568L15.0265 0.682575C16.5986 0.293174 18.2615 0.0834961 19.9546 0.0834961Z" fill="#2F3370"/>
</svg>
