<svg width="296" height="40" viewBox="0 0 296 40" fill="none" xmlns="http://www.w3.org/2000/svg">
<path fill-rule="evenodd" clip-rule="evenodd" d="M17.3605 35C8.21769 34.709 0.761905 27.7513 0 18.9947L17.3605 35ZM24.6531 33.7831C23.8095 34.127 22.9116 34.3915 22.0136 34.5767L0.163265 14.7884C0.29932 13.8889 0.517007 13.0423 0.789116 12.1958L24.6531 33.7831ZM30.3946 30.1852C29.4422 31.0582 28.4082 31.8254 27.2925 32.4868L1.08844 11.3492C1.41497 10.5291 1.79592 9.7619 2.20408 8.99471L30.3946 30.1852ZM33.6054 26.2434C32.9524 27.328 32.1905 28.3598 31.3197 29.2857L4 6.45503C4.54422 5.79365 5.14286 5.18518 5.79592 4.60317L33.6054 26.2434ZM17.9592 0C27.8912 0 36 7.85714 36 17.5132C36 18.8889 35.8367 20.2381 35.5102 21.5344L8.43537 2.69841L34.9388 23.4127C34.7211 24.0212 34.449 24.5767 34.1769 25.1587L6.77551 3.78307C7.97279 2.85714 9.27891 2.08995 10.6667 1.48148L24.381 9.60317L13.5238 0.529101C14.9388 0.185185 16.4354 0 17.9592 0Z" fill="white"/>
<g clip-path="url(#clip0)">
<path d="M250.692 24.4089V31.9233H247.154V13.5208H250.692L250.615 15.5144H250.769C251 14.6709 251.308 14.1342 251.846 13.8275C252.385 13.5208 253.077 13.3674 253.923 13.3674C255.308 13.3674 256.308 13.7508 257 14.5176C257.692 15.2843 258.077 16.4345 258.077 18.1214V21.0351C258.077 22.3387 257.923 23.4121 257.692 24.1789C257.385 24.9457 257 25.5591 256.385 25.9425C255.769 26.3259 255 26.4792 254 26.4792C253.231 26.4792 252.615 26.3259 252.154 26.0192C251.615 25.7125 251.308 25.1757 251 24.3323H250.692V24.4089ZM250.692 19.9617C250.692 20.8051 250.692 21.4185 250.769 21.8786C250.846 22.3387 251 22.722 251.231 22.9521C251.462 23.1821 251.846 23.3355 252.385 23.3355C252.923 23.3355 253.308 23.2588 253.615 23.1054C253.923 22.9521 254.077 22.6454 254.231 22.1853C254.385 21.7252 254.385 20.9585 254.385 20.0383C254.385 19.1182 254.308 18.3514 254.231 17.8914C254.154 17.4313 253.923 17.1246 253.692 16.9712C253.385 16.8179 253 16.6645 252.462 16.6645C251.923 16.6645 251.538 16.7412 251.308 16.9712C251.077 17.1246 250.923 17.508 250.769 17.9681C250.769 18.2748 250.692 18.9649 250.692 19.9617ZM241.846 22.0319H245.308C245.308 23.7955 244.846 25.0224 243.846 25.7125C243.385 26.0192 242.846 26.1725 242.231 26.3259C241.615 26.4026 240.846 26.4792 240 26.4792C238.615 26.4792 237.462 26.2492 236.692 25.8658C235.923 25.4058 235.385 24.7923 235.077 23.7955C234.769 22.8754 234.615 21.5719 234.615 19.885C234.615 18.1981 234.769 16.8179 235.077 15.8978C235.385 14.9776 235.846 14.2875 236.615 13.9042C237.385 13.5208 238.462 13.2907 239.923 13.2907C241.308 13.2907 242.385 13.4441 243.154 13.8275C243.923 14.2109 244.462 14.8243 244.769 15.8211C245.077 16.7412 245.231 18.1214 245.231 19.885V20.5751H238.154C238.154 21.1885 238.154 21.6486 238.231 22.0319C238.308 22.4153 238.385 22.722 238.462 22.8754C238.615 23.1054 238.769 23.2588 239 23.3355C239.231 23.4121 239.538 23.4888 239.923 23.4888C240.538 23.4888 241 23.4121 241.308 23.1821C241.692 23.1054 241.846 22.6454 241.846 22.0319ZM238.308 18.3514H241.846C241.846 17.4313 241.692 16.8946 241.462 16.6645C241.231 16.4345 240.692 16.2811 240.077 16.2811C239.615 16.2811 239.308 16.3578 239.077 16.4345C238.846 16.5112 238.692 16.7412 238.538 17.0479C238.385 17.278 238.308 17.738 238.308 18.3514ZM226 21.2652V26.3259H222.462V13.5208H226V18.1981H229.308V13.5208H232.846V26.3259H229.308V21.2652H226ZM215.154 16.5879C214.538 16.5879 214.154 16.6645 213.846 16.8179C213.615 16.9712 213.385 17.278 213.308 17.738C213.231 18.1981 213.154 18.8882 213.154 19.885C213.154 20.8818 213.231 21.5719 213.308 22.0319C213.385 22.492 213.538 22.7987 213.846 22.9521C214.077 23.1054 214.538 23.1821 215.154 23.1821C215.615 23.1821 215.923 23.1054 216.154 23.0288C216.385 22.9521 216.538 22.7987 216.692 22.5687C216.846 22.3387 216.923 22.0319 216.923 21.6486C216.923 21.2652 217 20.6518 217 19.885C217 18.8882 217 18.1981 216.923 17.738C216.846 17.278 216.692 16.9712 216.462 16.8179C216.154 16.6645 215.769 16.5879 215.154 16.5879ZM215.077 13.3674C216.231 13.3674 217.231 13.4441 217.923 13.6741C218.615 13.8275 219.154 14.2109 219.538 14.6709C219.923 15.131 220.154 15.8211 220.308 16.5879C220.462 17.4313 220.538 18.5048 220.538 19.9617C220.538 21.3419 220.462 22.492 220.308 23.2588C220.154 24.1022 219.923 24.7157 219.462 25.1757C219.077 25.6358 218.538 26.0192 217.846 26.1725C217.154 26.4026 216.231 26.4792 215.077 26.4792C213.923 26.4792 213 26.4026 212.308 26.1725C211.615 25.9425 211.077 25.6358 210.692 25.099C210.308 24.639 210 23.9489 209.846 23.1054C209.692 22.262 209.615 21.1885 209.615 19.885C209.615 18.5048 209.692 17.3546 209.846 16.5879C210 15.7444 210.231 15.131 210.615 14.6709C211 14.2109 211.538 13.8275 212.231 13.6741C213 13.4441 213.923 13.3674 215.077 13.3674ZM207.846 13.5208H203.769L200.846 21.4185H200.692V13.5208H197.462V26.3259H201.538L204.462 18.4281H204.538V26.3259H207.769V13.5208H207.846ZM188.077 23.2588H191.385V13.5208H194.923V23.2588H195.923V29.623H192.692V26.3259H184.385V13.5208H187.923V23.2588H188.077ZM182.154 13.5208H178.077L175.154 21.4185H175V13.5208H171.846V26.3259H175.923L178.846 18.4281H178.923V26.3259H182.154V13.5208ZM166.077 15.7444L165.923 13.4441H169.462V25.7125C169.462 27.3994 169.308 28.6262 169.077 29.5463C168.769 30.4665 168.308 31.0799 167.615 31.4633C166.923 31.8466 165.846 32 164.385 32C163.385 32 162.538 31.9233 161.923 31.77C161.308 31.6166 160.769 31.3866 160.385 31.0799C160 30.7732 159.692 30.3131 159.462 29.6997C159.231 29.0863 159.154 28.3962 159.077 27.476H162.462C162.462 28.0895 162.615 28.5495 162.923 28.7796C163.154 28.9329 163.538 28.9329 164 28.9329C164.538 28.9329 164.923 28.8562 165.231 28.7796C165.462 28.7029 165.692 28.4728 165.769 28.1661C165.846 27.8594 165.923 27.3994 165.923 26.7859V24.1022H165.769C165.385 25.4824 164.385 26.1725 162.846 26.1725C161.923 26.1725 161.154 26.0192 160.615 25.7125C160.077 25.4058 159.615 24.9457 159.385 24.4089C159.077 23.8722 158.923 23.1821 158.846 22.492C158.769 21.7252 158.692 20.8818 158.692 19.8083C158.692 18.2748 158.769 17.0479 159 16.1278C159.154 15.2077 159.615 14.5176 160.231 13.9808C160.846 13.5208 161.769 13.2141 162.923 13.2141C163.769 13.2141 164.462 13.3674 164.923 13.7508C165.462 14.0575 165.769 14.7476 166 15.6677H166.077V15.7444ZM165.923 19.9617C165.923 18.9649 165.846 18.2748 165.769 17.8147C165.692 17.3546 165.462 17.0479 165.231 16.8946C165 16.7412 164.615 16.6645 164.077 16.6645C163.462 16.6645 163.077 16.7412 162.846 16.8946C162.615 17.0479 162.462 17.3546 162.385 17.8147C162.308 18.2748 162.308 18.9649 162.308 20.0383C162.308 20.9585 162.385 21.6486 162.462 22.1086C162.538 22.5687 162.692 22.8754 163 23.0288C163.231 23.1821 163.615 23.2588 164.154 23.2588C164.692 23.2588 165.154 23.1821 165.385 22.9521C165.615 22.722 165.846 22.4153 165.923 21.9553C165.923 21.4185 165.923 20.7284 165.923 19.9617ZM149.846 21.2652V26.3259H146.308V13.5208H149.846V18.1981H153.154V13.5208H156.692V26.3259H153.154V21.2652H149.846ZM139 16.5879C138.385 16.5879 138 16.6645 137.692 16.8179C137.462 16.9712 137.231 17.278 137.154 17.738C137.077 18.1981 137 18.8882 137 19.885C137 20.8818 137.077 21.5719 137.154 22.0319C137.231 22.492 137.385 22.7987 137.692 22.9521C137.923 23.1054 138.385 23.1821 139 23.1821C139.462 23.1821 139.769 23.1054 140 23.0288C140.231 22.9521 140.385 22.7987 140.538 22.5687C140.692 22.3387 140.769 22.0319 140.769 21.6486C140.769 21.2652 140.846 20.6518 140.846 19.885C140.846 18.8882 140.846 18.1981 140.769 17.738C140.692 17.278 140.538 16.9712 140.308 16.8179C140 16.6645 139.615 16.5879 139 16.5879ZM138.923 13.3674C140.077 13.3674 141.077 13.4441 141.769 13.6741C142.462 13.8275 143 14.2109 143.385 14.6709C143.769 15.131 144 15.8211 144.154 16.5879C144.308 17.4313 144.385 18.5048 144.385 19.9617C144.385 21.3419 144.308 22.492 144.154 23.2588C144 24.1022 143.769 24.7157 143.308 25.1757C142.923 25.6358 142.385 26.0192 141.692 26.1725C141 26.4026 140.077 26.4792 138.923 26.4792C137.769 26.4792 136.846 26.4026 136.154 26.1725C135.462 25.9425 134.923 25.6358 134.538 25.099C134.154 24.639 133.846 23.9489 133.692 23.1054C133.538 22.262 133.462 21.1885 133.462 19.885C133.462 18.5048 133.538 17.3546 133.692 16.5879C133.846 15.7444 134.077 15.131 134.462 14.6709C134.846 14.2109 135.385 13.8275 136.077 13.6741C136.846 13.4441 137.769 13.3674 138.923 13.3674ZM125.231 8V18.3514H125.846L128 13.5208H131.923L128.846 19.655L132.615 26.3259H128.462L125.846 21.1118H125.231V26.3259H121.692V8H125.231ZM112.462 24.4089V31.9233H108.923V13.5208H112.462L112.385 15.5144H112.538C112.769 14.6709 113.077 14.1342 113.615 13.8275C114.077 13.5208 114.769 13.3674 115.615 13.3674C117 13.3674 118 13.7508 118.692 14.5176C119.385 15.2843 119.769 16.4345 119.769 18.1214V21.0351C119.769 22.3387 119.615 23.4121 119.385 24.1789C119.077 24.9457 118.692 25.5591 118.077 25.9425C117.462 26.3259 116.692 26.4792 115.692 26.4792C114.923 26.4792 114.308 26.3259 113.846 26.0192C113.308 25.7125 113 25.1757 112.692 24.3323H112.462V24.4089ZM112.462 19.9617C112.462 20.8051 112.462 21.4185 112.538 21.8786C112.615 22.3387 112.769 22.722 113 22.9521C113.231 23.1821 113.615 23.3355 114.154 23.3355C114.692 23.3355 115.077 23.2588 115.385 23.1054C115.692 22.9521 115.846 22.6454 116 22.1853C116.154 21.7252 116.154 20.9585 116.154 20.0383C116.154 19.1182 116.077 18.3514 116 17.8914C115.923 17.4313 115.692 17.1246 115.462 16.9712C115.154 16.8179 114.769 16.6645 114.231 16.6645C113.692 16.6645 113.308 16.7412 113.077 16.9712C112.846 17.1246 112.692 17.508 112.538 17.9681C112.462 18.2748 112.462 18.9649 112.462 19.9617ZM103.615 22.0319H107.154C107.154 23.7955 106.692 25.0224 105.692 25.7125C105.231 26.0192 104.692 26.1725 104.077 26.3259C103.462 26.4026 102.692 26.4792 101.846 26.4792C100.462 26.4792 99.3077 26.2492 98.5385 25.8658C97.7692 25.4058 97.2308 24.7923 96.9231 23.7955C96.6154 22.8754 96.4615 21.5719 96.4615 19.885C96.4615 18.1981 96.6154 16.8179 96.9231 15.8978C97.2308 14.9776 97.6923 14.2875 98.4615 13.9042C99.2308 13.5208 100.308 13.3674 101.769 13.3674C103.154 13.3674 104.231 13.5208 105 13.9042C105.769 14.2875 106.308 14.901 106.615 15.8978C106.923 16.8179 107.077 18.1981 107.077 19.9617V20.6518H100C100 21.2652 100 21.7252 100.077 22.1086C100.154 22.492 100.231 22.7987 100.308 22.9521C100.462 23.1821 100.615 23.3355 100.846 23.4121C101.077 23.4888 101.385 23.5655 101.769 23.5655C102.385 23.5655 102.846 23.4888 103.154 23.2588C103.462 23.1054 103.615 22.6454 103.615 22.0319ZM100 18.3514H103.538C103.538 17.4313 103.385 16.8946 103.154 16.6645C102.923 16.4345 102.385 16.2811 101.769 16.2811C101.308 16.2811 101 16.3578 100.769 16.4345C100.538 16.5112 100.385 16.7412 100.231 17.0479C100.077 17.278 100.077 17.738 100 18.3514ZM81.3846 19.0415V26.3259H77.8462V13.5208H81.3077V15.361H81.4615C81.6923 14.6709 82 14.1342 82.5385 13.8275C83.0769 13.5208 83.6923 13.3674 84.3846 13.3674C85 13.3674 85.5385 13.4441 85.9231 13.5208C86.3846 13.6741 86.7692 13.9042 87.0769 14.2875C87.3846 14.6709 87.6154 15.2077 87.6154 15.8978H87.7692C87.8462 15.0543 88.1538 14.4409 88.7692 13.9808C89.4615 13.5974 90.0769 13.3674 90.8462 13.3674C92.1538 13.3674 93.0769 13.6741 93.6923 14.3642C94.3077 15.0543 94.6154 16.1278 94.6154 17.5847V26.3259H91.0769V18.8882C91.0769 18.2748 91 17.8147 91 17.508C90.9231 17.2013 90.8462 16.9712 90.6154 16.8179C90.3846 16.6645 90.0769 16.5112 89.6923 16.5112C89.0769 16.5112 88.6154 16.7412 88.3846 17.1246C88.1538 17.5847 88 18.1981 88 18.9649V26.2492H84.4615V18.5815C84.4615 17.8914 84.3846 17.3546 84.2308 17.0479C84.0769 16.7412 83.6923 16.5879 83.1538 16.5879C82.4615 16.5879 82 16.8179 81.7692 17.2013C81.4615 17.5847 81.3846 18.1981 81.3846 19.0415ZM68.5385 21.2652V26.3259H64.9231V13.5208H68.4615V18.1981H71.8462V13.5208H75.3846V26.3259H71.8462V21.2652H68.5385ZM48 8H51.9231V20.0383H52.0769L56.9231 8H62.3846V26.3259H58.4615V14.2875H58.3077L53.6154 26.3259H48V8Z" fill="white"/>
</g>
<defs>
<clipPath id="clip0">
<rect width="210" height="24" fill="white" transform="translate(48 8)"/>
</clipPath>
</defs>
</svg>
