<svg width="22" height="24" viewBox="0 0 22 24" fill="none" xmlns="http://www.w3.org/2000/svg">
<g clip-path="url(#clip0)">
<path d="M11.5101 15.3948C11.5101 15.8402 11.1437 16.2047 10.6957 16.2047C10.2478 16.2047 9.88135 15.8402 9.88135 15.3948C9.88135 14.9494 10.2478 14.5849 10.6957 14.5849C11.1437 14.5849 11.5101 14.9494 11.5101 15.3948Z" fill="#2F3370"/>
<path d="M14.4147 9.05059C14.4147 10.6704 13.3289 12.1282 11.768 12.5939C11.6186 12.6411 11.5168 12.7694 11.5168 12.9179V13.0933C11.5168 13.5388 11.1504 13.9032 10.7024 13.9032C10.2545 13.9032 9.88805 13.5388 9.88805 13.0933V12.9179C9.88805 12.0472 10.4581 11.2913 11.3065 11.0416C12.1819 10.7784 12.7927 9.96172 12.7927 9.05059C12.7927 8.51066 12.5688 7.99772 12.1684 7.59952C11.768 7.20132 11.2454 6.9786 10.7092 6.9786C9.55551 6.9786 8.62574 7.90998 8.62574 9.05059C8.62574 9.49603 8.25926 9.86049 7.81134 9.86049C7.36343 9.86049 6.99695 9.49603 6.99695 9.05059C6.99695 7.01234 8.66646 5.35205 10.716 5.35205C11.6933 5.35205 12.6231 5.7435 13.3289 6.44541C13.6818 6.79637 13.96 7.20807 14.1433 7.64676C14.3129 8.09221 14.4147 8.56465 14.4147 9.05059Z" fill="#2F3370"/>
<path d="M10.6414 -0.00123614C4.78458 -0.0484802 0 4.68268 0 10.5005C0 15.2991 3.2508 19.4701 7.91321 20.6714L12.6367 23.83C12.7996 23.938 12.9964 23.9988 13.1864 23.9988C13.3357 23.9988 13.485 23.965 13.6208 23.8975C13.9397 23.7423 14.1433 23.4318 14.1569 23.0809L14.2655 20.3407C18.2628 18.8492 21.12 15.0089 21.1268 10.5207C21.1336 4.77042 16.4304 0.046008 10.6414 -0.00123614ZM13.295 18.6737C13.2 18.7074 13.0982 18.7344 12.9964 18.7682C12.6435 18.8694 12.3788 19.1664 12.3449 19.5308C12.3449 19.5511 12.3381 19.5713 12.3381 19.5916L12.2906 20.8672L12.277 21.2924L11.7544 20.9414L8.89049 19.0246C8.81583 18.9774 8.74118 18.9369 8.65974 18.9099C8.59866 18.8964 8.53758 18.8829 8.4765 18.8694C8.45614 18.8627 8.43578 18.8627 8.41542 18.8559C4.49954 17.857 1.79167 14.307 1.90704 10.2575C2.03599 5.66806 5.80936 1.96277 10.4243 1.88853C15.2631 1.81429 19.2197 5.70855 19.2197 10.5005C19.2197 14.3002 16.7358 17.5331 13.295 18.6737Z" fill="#2F3370"/>
</g>
<defs>
<clipPath id="clip0">
<rect width="21.12" height="24" fill="white"/>
</clipPath>
</defs>
</svg>
